<svg width="48" height="48" viewBox="0 0 48 48" fill="none" xmlns="http://www.w3.org/2000/svg">
<rect width="48" height="48" rx="24" fill="#398393"/>
<path d="M16.5 34C16.1 34 15.75 33.85 15.45 33.55C15.15 33.25 15 32.9 15 32.5V17C15 16.6 15.15 16.25 15.45 15.95C15.75 15.65 16.1 15.5 16.5 15.5H18.125V14H19.75V15.5H28.25V14H29.875V15.5H31.5C31.9 15.5 32.25 15.65 32.55 15.95C32.85 16.25 33 16.6 33 17V32.5C33 32.9 32.85 33.25 32.55 33.55C32.25 33.85 31.9 34 31.5 34H16.5ZM16.5 32.5H31.5V21.75H16.5V32.5ZM16.5 20.25H31.5V17H16.5V20.25Z" fill="#E5E5E5"/>
</svg>
