<svg width="48" height="48" viewBox="0 0 48 48" fill="none" xmlns="http://www.w3.org/2000/svg">
<rect width="48" height="48" rx="24" fill="#398393"/>
<path d="M27.3 33L20.725 30.675L16.25 32.45C15.9667 32.6 15.6875 32.5916 15.4125 32.425C15.1375 32.2583 15 32.0083 15 31.675V17.725C15 17.5083 15.0625 17.3167 15.1875 17.15C15.3125 16.9833 15.475 16.8583 15.675 16.775L20.725 15L27.3 17.3L31.75 15.525C32.0333 15.3917 32.3125 15.4042 32.5875 15.5625C32.8625 15.7208 33 15.9667 33 16.3V30.425C33 30.6083 32.9375 30.7666 32.8125 30.9C32.6875 31.0333 32.5334 31.1334 32.35 31.2L27.3 33ZM26.45 31.125V18.5L21.55 16.85V29.475L26.45 31.125ZM27.95 31.125L31.5 29.95V17.15L27.95 18.5V31.125ZM16.5 30.825L20.05 29.475V16.85L16.5 18.025V30.825Z" fill="#E5E5E5"/>
</svg>
