<svg width="48" height="48" viewBox="0 0 48 48" fill="none" xmlns="http://www.w3.org/2000/svg">
<rect width="48" height="48" rx="24" fill="#398393"/>
<path d="M24 27.6501C24.2409 27.6501 24.4428 27.5687 24.6058 27.4058C24.7686 27.2428 24.85 27.0409 24.85 26.8001C24.85 26.5592 24.7686 26.3573 24.6058 26.1943C24.4428 26.0315 24.2409 25.9501 24 25.9501C23.7591 25.9501 23.5572 26.0315 23.3942 26.1943C23.2314 26.3573 23.15 26.5592 23.15 26.8001C23.15 27.0409 23.2314 27.2428 23.3942 27.4058C23.5572 27.5687 23.7591 27.6501 24 27.6501ZM23.25 24.3001H24.75V19.1251H23.25V24.3001ZM24 33.9751C21.6667 33.3917 19.75 32.0376 18.25 29.9126C16.75 27.7876 16 25.4584 16 22.9251V16.9751L24 13.9751L32 16.9751V22.9251C32 25.4584 31.25 27.7876 29.75 29.9126C28.25 32.0376 26.3333 33.3917 24 33.9751ZM24 32.4251C25.9167 31.7917 27.4792 30.5959 28.6875 28.8376C29.8958 27.0792 30.5 25.1084 30.5 22.9251V18.0251L24 15.5751L17.5 18.0251V22.9251C17.5 25.1084 18.1042 27.0792 19.3125 28.8376C20.5208 30.5959 22.0833 31.7917 24 32.4251Z" fill="#E5E5E5"/>
</svg>
